<svg xmlns="http://www.w3.org/2000/svg" viewBox="0 0 64 64" shape-rendering="crispEdges">
<metadata>Made with Pixels to Svg https://codepen.io/shshaw/pen/XbxvNj</metadata>
<path stroke="#000000" d="M7 4h38M6 5h40M5 6h42M4 7h44M4 8h44M5 9h43M6 10h42M7 11h41M37 12h11M38 13h10M39 14h9M40 15h8M40 16h8M40 17h8M40 18h8M40 19h8M40 20h8M40 21h8M40 22h8M40 23h8M40 24h8M40 25h8M40 26h8M40 27h8M40 28h8M40 29h8M40 30h8M40 31h8M40 32h8M40 33h8M40 34h8M40 35h8M40 36h8M40 37h8M40 38h8M40 39h8M40 40h8M40 41h8M40 42h8M40 43h8M40 44h8M40 45h8M40 46h8M40 47h8M40 48h8M40 49h8M40 50h8M40 51h8M40 52h8M40 53h8M40 54h8M40 55h8M40 56h8M41 57h6M42 58h4M43 59h2" />
<path stroke="#c3b5fd" d="M55 12h2M54 13h4M53 14h6M52 15h8M52 16h8M53 17h6M54 18h4M55 19h2M55 28h2M54 29h4M53 30h6M52 31h8M52 32h8M53 33h6M54 34h4M55 35h2" />
</svg>