<svg xmlns="http://www.w3.org/2000/svg" viewBox="0 -0.5 64 64" shape-rendering="crispEdges">
<metadata>Made with Pixels to Svg https://codepen.io/shshaw/pen/XbxvNj</metadata>
<path stroke="#000000" d="M29 4h6M28 5h8M27 6h3M34 6h3M26 7h3M35 7h3M25 8h3M36 8h3M25 9h2M37 9h2M25 10h2M37 10h2M25 11h2M37 11h2M25 12h2M37 12h2M25 13h3M36 13h3M26 14h3M35 14h3M27 15h3M34 15h3M28 16h8M29 17h6M29 46h6M28 47h8M27 48h3M34 48h3M26 49h3M35 49h3M25 50h3M36 50h3M25 51h2M37 51h2M25 52h2M37 52h2M25 53h2M37 53h2M25 54h2M37 54h2M25 55h3M36 55h3M26 56h3M35 56h3M27 57h3M34 57h3M28 58h8M29 59h6" />
<path stroke="#b5a5d5" d="M29 25h6M28 26h8M27 27h3M34 27h3M26 28h3M35 28h3M25 29h3M36 29h3M25 30h2M37 30h2M25 31h2M37 31h2M25 32h2M37 32h2M25 33h2M37 33h2M25 34h3M36 34h3M26 35h3M35 35h3M27 36h3M34 36h3M28 37h8M29 38h6" />
</svg>